<svg height="493pt" viewBox="0 0 493.66142 493" width="493pt" xmlns="http://www.w3.org/2000/svg"><path d="m439.320312 253.996094h-199.328124v-199.328125c0-6.679688-2.816407-13.128907-7.730469-17.679688-4.871094-4.503906-11.382813-6.816406-18.046875-6.320312-125.703125 9.519531-221.597656 119.925781-213.765625 246.109375 7.222656 116.351562 100.398437 209.539062 216.75 216.753906 4.832031.296875 9.632812.449219 14.417969.449219 120.070312-.011719 222.542968-93.320313 231.703124-214.210938.496094-6.589843-1.808593-13.167969-6.320312-18.046875-4.550781-4.910156-11-7.726562-17.679688-7.726562zm-221.136718 223.566406c-108.304688-6.71875-195.039063-93.464844-201.761719-201.769531-7.292969-117.503907 81.976563-220.300781 199-229.175781 2.167969-.191407 4.328125.570312 5.96875 2.105468 1.679687 1.558594 2.601563 3.671875 2.601563 5.945313v23.527343c-97.761719 4.207032-176 85.023438-176 183.800782 0 101.460937 82.535156 184 184 184 86.0625 0 159.765624-58.472656 179.222656-142.183594l-15.574219-3.625c-17.777344 76.421875-85.066406 129.808594-163.648437 129.808594-92.632813 0-168-75.371094-168-168 0-24.730469 5.503906-48.144532 15.144531-69.3125.96875.808594 1.984375 1.742187 3.199219 2.96875 4.367187 4.367187 10.34375 10.34375 21.65625 10.34375s17.289062-5.976563 21.65625-10.34375c3.917968-3.921875 5.847656-5.65625 10.34375-5.65625v-16c-11.3125 0-17.289063 5.972656-21.65625 10.34375-3.921876 3.917968-5.847657 5.65625-10.34375 5.65625-4.496094 0-6.425782-1.738282-10.34375-5.65625-1.929688-1.929688-4.21875-4.160156-7.097657-6.066406 27.800781-48.101563 78.679688-81.085938 137.441407-83.878907v175.601563h175.726562c-.230469 5.007812-.605469 10-1.277344 14.917968l15.855469 2.160157c.765625-5.632813 1.175781-11.351563 1.421875-17.078125h23.601562c2.269532 0 4.382813.917968 5.941407 2.597656 1.523437 1.648438 2.265625 3.769531 2.105469 5.96875-8.878907 117.023438-111.535157 206.382812-229.183594 199zm0 0"/><path d="m175.992188 357.996094c-13.234376 0-24 10.765625-24 24 0 13.230468 10.765624 24 24 24 13.230468 0 24-10.769532 24-24 0-13.234375-10.769532-24-24-24zm0 32c-4.417969 0-8-3.585938-8-8 0-4.417969 3.582031-8 8-8 4.414062 0 8 3.582031 8 8 0 4.414062-3.585938 8-8 8zm0 0"/><path d="m287.992188 181.996094c0 13.230468 10.765624 24 24 24 13.230468 0 24-10.769532 24-24 0-13.234375-10.769532-24-24-24-13.234376 0-24 10.765625-24 24zm32 0c0 4.414062-3.585938 8-8 8-4.417969 0-8-3.585938-8-8 0-4.417969 3.582031-8 8-8 4.414062 0 8 3.582031 8 8zm0 0"/><path d="m199.992188 253.996094c-13.234376 0-24 10.765625-24 24 0 13.230468 10.765624 24 24 24 13.230468 0 24-10.769532 24-24 0-13.234375-10.769532-24-24-24zm0 32c-4.417969 0-8-3.585938-8-8 0-4.417969 3.582031-8 8-8 4.414062 0 8 3.582031 8 8 0 4.414062-3.585938 8-8 8zm0 0"/><path d="m343.992188 301.996094c-13.234376 0-24 10.765625-24 24 0 13.230468 10.765624 24 24 24 13.230468 0 24-10.769532 24-24 0-13.234375-10.769532-24-24-24zm0 32c-4.417969 0-8-3.585938-8-8 0-4.417969 3.582031-8 8-8 4.414062 0 8 3.582031 8 8 0 4.414062-3.585938 8-8 8zm0 0"/><path d="m119.992188 237.996094c-13.234376 0-24 10.765625-24 24 0 13.230468 10.765624 24 24 24 13.230468 0 24-10.769532 24-24 0-13.234375-10.769532-24-24-24zm0 32c-4.417969 0-8-3.585938-8-8 0-4.417969 3.582031-8 8-8 4.414062 0 8 3.582031 8 8 0 4.414062-3.585938 8-8 8zm0 0"/><path d="m271.992188 389.996094c-4.496094 0-6.425782-1.738282-10.34375-5.65625-4.367188-4.371094-10.34375-10.34375-21.65625-10.34375v16c4.496093 0 6.421874 1.734375 10.34375 5.65625 4.367187 4.367187 10.34375 10.34375 21.65625 10.34375s17.289062-5.976563 21.65625-10.34375c3.917968-3.921875 5.847656-5.65625 10.34375-5.65625v-16c-11.3125 0-17.289063 5.972656-21.65625 10.34375-3.921876 3.917968-5.847657 5.65625-10.34375 5.65625zm0 0"/><path d="m493.421875 210.59375c-.285156-2.007812-.589844-4.007812-.933594-5.992188l-.023437-.117187c-19.496094-103.800781-99.160156-183.464844-203.082032-202.984375-1.984374-.34375-3.984374-.648438-5.984374-.9375-6.894532-.960938-13.832032 1.089844-19.09375 5.640625-5.28125 4.589844-8.3125 11.222656-8.3125 18.199219v213.59375h213.589843c6.976563 0 13.609375-3.035156 18.195313-8.3125 4.566406-5.265625 6.621094-12.21875 5.644531-19.089844zm-17.726563 8.601562c-1.566406 1.808594-3.734374 2.800782-6.113281 2.800782h-23.230469c-9.457031-78.242188-65.335937-145.082032-141.273437-167.671875l-4.558594 15.34375c24.144531 7.175781 46.015625 19.300781 64.777344 34.957031-7.847656 3.945312-13.304687 11.992188-13.304687 21.371094 0 13.230468 10.765624 24 24 24 8.808593 0 16.4375-4.824219 20.617187-11.921875 17.765625 24.425781 29.582031 53.167969 33.628906 83.921875h-158.246093v-92.601563c.726562.664063 1.472656 1.382813 2.34375 2.257813 4.367187 4.367187 10.34375 10.34375 21.65625 10.34375s17.289062-5.976563 21.65625-10.34375c3.917968-3.921875 5.847656-5.65625 10.34375-5.65625v-16c-11.3125 0-17.289063 5.972656-21.65625 10.34375-3.921876 3.917968-5.847657 5.65625-10.34375 5.65625-4.496094 0-6.425782-1.738282-10.34375-5.65625-3.191407-3.191406-7.28125-7.234375-13.65625-9.175782v-47.488281c4.824218.621094 9.625 1.375 14.335937 2.375l3.328125-15.65625c-5.800781-1.222656-11.71875-2.105469-17.664062-2.816406v-23.175781c0-2.375.992187-4.535156 2.800781-6.113282 1.78125-1.542968 4.054687-2.207031 6.351562-1.878906 1.847657.257813 3.695313.542969 5.40625.832032 97.257813 18.265624 171.898438 92.886718 190.175781 190.136718.3125 1.816406.59375 3.632813.847657 5.480469.328125 2.304687-.335938 4.558594-1.878907 6.335937zm-99.703124-101.199218c4.414062 0 8 3.582031 8 8 0 4.414062-3.585938 8-8 8-4.417969 0-8-3.585938-8-8 0-4.417969 3.582031-8 8-8zm0 0"/><path d="m383.992188 173.996094h16v16h-16zm0 0"/><path d="m351.992188 189.996094h16v16h-16zm0 0"/><path d="m287.992188 293.996094h16v16h-16zm0 0"/><path d="m239.992188 317.996094h16v16h-16zm0 0"/><path d="m143.992188 301.996094h16v16h-16zm0 0"/><path d="m191.992188 133.996094h16v16h-16zm0 0"/><path d="m167.992188 189.996094h16v16h-16zm0 0"/><path d="m103.992188 325.996094h16v16h-16zm0 0"/></svg>