<svg id="icons" enable-background="new 0 0 64 64" height="512" viewBox="0 0 64 64" width="512" xmlns="http://www.w3.org/2000/svg"><path d="m51 50.5c-2.206 0-4 1.794-4 4s1.794 4 4 4 4-1.794 4-4-1.794-4-4-4zm0 6c-1.103 0-2-.897-2-2s.897-2 2-2 2 .897 2 2-.897 2-2 2z"/><path d="m13 50.5c-2.206 0-4 1.794-4 4s1.794 4 4 4 4-1.794 4-4-1.794-4-4-4zm0 6c-1.103 0-2-.897-2-2s.897-2 2-2 2 .897 2 2-.897 2-2 2z"/><path d="m1 55.5h4.069c.495 3.939 3.858 7 7.931 7s7.436-3.061 7.931-7h22.139c.495 3.939 3.858 7 7.931 7s7.436-3.061 7.931-7h4.068c.553 0 1-.447 1-1v-6-11c0-.026-.013-.048-.015-.073-.005-.066-.021-.128-.039-.193-.019-.066-.038-.129-.069-.189-.012-.022-.012-.047-.025-.068l-8-13c-.021-.033-.053-.052-.076-.081-.042-.055-.086-.104-.139-.149-.05-.042-.101-.074-.156-.105-.055-.03-.109-.057-.17-.077-.066-.021-.132-.033-.201-.041-.039-.006-.071-.024-.11-.024h-13c-.553 0-1 .447-1 1 0 .001.001.002.001.004 0 .001-.001.002-.001.003v12.993h-3.555c.344-.59.555-1.267.555-1.998v-.001h1c.553 0 1-.447 1-1s-.447-1-1-1h-1v-1.987c0-8.997-6.643-16.451-15.276-17.771.173-.379.276-.797.276-1.241 0-1.654-1.346-3-3-3s-3 1.346-3 3c0 .444.103.862.276 1.241-8.633 1.32-15.275 8.774-15.275 17.771v1.987h-1.001c-.553 0-1 .447-1 1s.447 1 1 1h1.001v.001c0 .731.211 1.408.555 1.998h-1.556c-.553 0-1 .447-1 1v10 6c0 .553.447 1 1 1zm41-9c.553 0 1-.447 1-1v-20h11.441l7.559 12.283v10.717 5h-3.069c-.495-3.939-3.858-7-7.931-7s-7.436 3.061-7.931 7h-22.138c-.495-3.939-3.858-7-7.931-7s-7.436 3.061-7.931 7h-3.069v-5-5h39v2c0 .553.447 1 1 1zm-29 14c-3.309 0-6-2.691-6-6s2.691-6 6-6 6 2.691 6 6-2.691 6-6 6zm38 0c-3.309 0-6-2.691-6-6s2.691-6 6-6 6 2.691 6 6-2.691 6-6 6zm-10-19h-39v-2h3.981c.007 0 .013.002.02.002.003 0 .006-.002.01-.002h27.979c.004 0 .006.002.01.002.007 0 .013-.002.02-.002h6.98zm-21-29.998c.552 0 1 .448 1 1s-.448 1-1 1-1-.448-1-1 .448-1 1-1zm0 4.013c8.822 0 16 7.177 16 15.999v1.987h-31.999v-1.987c0-8.823 7.177-15.999 15.999-15.999zm-15.999 19.987 31.999-.001v.001c0 1.096-.887 1.987-1.98 1.998h-28.039c-1.092-.011-1.98-.902-1.98-1.998z"/><path d="m45 36.5h13 .001c.115 0 .229-.028.342-.069.032-.012.063-.025.093-.04.029-.015.061-.021.089-.039.033-.021.052-.053.081-.076.055-.042.104-.086.149-.14.042-.049.074-.1.104-.155.031-.055.058-.109.078-.171.021-.066.033-.132.041-.2.004-.039.022-.071.022-.11 0-.025-.013-.047-.015-.071-.005-.067-.021-.131-.039-.196-.019-.066-.038-.129-.069-.188-.012-.021-.012-.047-.025-.068l-4.924-8.002c-.021-.035-.056-.055-.08-.086-.041-.051-.081-.098-.131-.14-.053-.045-.108-.081-.168-.113-.051-.028-.101-.052-.155-.071-.072-.024-.145-.036-.221-.044-.033-.003-.063-.02-.097-.02h-4.066c-.004 0-.006-.002-.01-.002s-.006.001-.01.001h-3.99c-.553 0-1 .447-1 1v8c0 .553.447 1 1 1zm7.519-8 3.692 6h-6.211v-6zm-4.519 6h-2v-6h2z"/><path d="m45 42.5h1c.553 0 1-.447 1-1s-.447-1-1-1h-1c-.553 0-1 .447-1 1s.447 1 1 1z"/><path d="m19.988 19.502c6.623 0 12.012 5.389 12.012 12.012 0 .553.447 1 1 1s1-.447 1-1c0-7.727-6.285-14.012-14.012-14.012-.553 0-1 .447-1 1s.448 1 1 1z"/><path d="m9.295 12.208c.195.195.451.293.707.293s.512-.098.707-.293c.911-.911 2.098-3.303.074-5.833-1.344-1.68-.296-2.936-.068-3.174.385-.391.383-1.02-.006-1.408-.391-.391-1.023-.391-1.414 0-.911.91-2.098 3.302-.074 5.832 1.347 1.683.292 2.941.074 3.169-.391.391-.391 1.023 0 1.414z"/><path d="m29.291 12.208c.195.195.451.293.707.293s.512-.098.707-.293c.911-.911 2.098-3.303.074-5.833-1.344-1.68-.296-2.936-.068-3.174.385-.391.383-1.02-.006-1.408-.391-.391-1.023-.391-1.414 0-.911.91-2.098 3.302-.074 5.832 1.347 1.683.292 2.941.074 3.169-.391.391-.391 1.023 0 1.414z"/><path d="m20.708 1.793c-.391-.391-1.023-.391-1.414 0-.911.91-2.098 3.302-.074 5.832.198.247.488.375.782.375.219 0 .439-.071.624-.219.431-.346.501-.975.156-1.406-1.344-1.68-.296-2.936-.068-3.174.385-.39.383-1.019-.006-1.408z"/></svg>