<?xml version="1.0" encoding="UTF-8"?> <svg xmlns="http://www.w3.org/2000/svg" width="177" height="73" viewBox="0 0 177 73" fill="none"><path d="M69.56 39.62L66.02 42.14C66.48 43.18 67.14 44.12 68 44.96C68.86 45.78 69.87 46.44 71.03 46.94C72.21 47.42 73.48 47.66 74.84 47.66C75.84 47.66 76.8 47.51 77.72 47.21C78.64 46.93 79.47 46.51 80.21 45.95C80.97 45.39 81.56 44.7 81.98 43.88C82.42 43.06 82.64 42.11 82.64 41.03C82.64 40.15 82.49 39.37 82.19 38.69C81.91 37.99 81.52 37.38 81.02 36.86C80.54 36.34 79.97 35.9 79.31 35.54C78.67 35.16 77.98 34.83 77.24 34.55C76.52 34.31 75.87 34.08 75.29 33.86C74.71 33.62 74.22 33.39 73.82 33.17C73.44 32.93 73.14 32.67 72.92 32.39C72.72 32.09 72.62 31.75 72.62 31.37C72.62 31.05 72.7 30.77 72.86 30.53C73.02 30.29 73.26 30.11 73.58 29.99C73.92 29.85 74.34 29.78 74.84 29.78C75.36 29.78 75.85 29.88 76.31 30.08C76.79 30.26 77.23 30.54 77.63 30.92C78.03 31.3 78.37 31.74 78.65 32.24L82.52 30.08C82.16 29.36 81.64 28.65 80.96 27.95C80.28 27.25 79.43 26.67 78.41 26.21C77.39 25.75 76.17 25.52 74.75 25.52C73.41 25.52 72.18 25.76 71.06 26.24C69.94 26.72 69.05 27.41 68.39 28.31C67.75 29.19 67.43 30.26 67.43 31.52C67.43 32.56 67.62 33.44 68 34.16C68.4 34.86 68.89 35.47 69.47 35.99C70.05 36.49 70.66 36.9 71.3 37.22C71.94 37.54 72.52 37.8 73.04 38C74.06 38.4 74.87 38.75 75.47 39.05C76.09 39.33 76.53 39.64 76.79 39.98C77.07 40.32 77.21 40.75 77.21 41.27C77.21 41.69 77.1 42.06 76.88 42.38C76.68 42.68 76.39 42.92 76.01 43.1C75.63 43.26 75.19 43.34 74.69 43.34C73.99 43.34 73.32 43.19 72.68 42.89C72.06 42.59 71.49 42.16 70.97 41.6C70.45 41.04 69.98 40.38 69.56 39.62ZM86.0293 26V47H91.2793V26H86.0293ZM98.3893 26L89.7793 35.99L98.6593 47H104.809L95.8393 35.84L104.359 26H98.3893ZM109.681 36.5C109.681 35.56 109.821 34.71 110.101 33.95C110.381 33.19 110.781 32.53 111.301 31.97C111.841 31.41 112.471 30.97 113.191 30.65C113.931 30.33 114.751 30.17 115.651 30.17C116.551 30.17 117.361 30.33 118.081 30.65C118.821 30.97 119.451 31.41 119.971 31.97C120.491 32.53 120.881 33.2 121.141 33.98C121.401 34.74 121.531 35.58 121.531 36.5C121.531 37.42 121.391 38.27 121.111 39.05C120.831 39.81 120.431 40.47 119.911 41.03C119.391 41.59 118.771 42.03 118.051 42.35C117.331 42.67 116.531 42.83 115.651 42.83C114.751 42.83 113.931 42.67 113.191 42.35C112.471 42.03 111.841 41.59 111.301 41.03C110.781 40.47 110.381 39.8 110.101 39.02C109.821 38.24 109.681 37.4 109.681 36.5ZM104.341 36.5C104.341 38.12 104.611 39.61 105.151 40.97C105.691 42.33 106.471 43.51 107.491 44.51C108.511 45.51 109.711 46.29 111.091 46.85C112.471 47.39 113.991 47.66 115.651 47.66C117.291 47.66 118.791 47.39 120.151 46.85C121.531 46.29 122.731 45.51 123.751 44.51C124.771 43.51 125.561 42.33 126.121 40.97C126.681 39.61 126.961 38.12 126.961 36.5C126.961 34.88 126.671 33.4 126.091 32.06C125.511 30.7 124.711 29.53 123.691 28.55C122.691 27.57 121.501 26.82 120.121 26.3C118.761 25.78 117.271 25.52 115.651 25.52C114.031 25.52 112.531 25.78 111.151 26.3C109.771 26.82 108.571 27.57 107.551 28.55C106.531 29.53 105.741 30.7 105.181 32.06C104.621 33.4 104.341 34.88 104.341 36.5ZM130.18 26V47H143.68V42.62H135.22V26H130.18ZM150.238 42.95H161.338L160.978 39.08H150.568L150.238 42.95ZM155.758 33.74L158.698 40.49L158.488 41.84L160.978 47H166.768L155.758 24.68L144.688 47H150.418L152.998 41.66L152.788 40.49L155.758 33.74Z" fill="#fff"></path><g><path fill-rule="evenodd" clip-rule="evenodd" d="M29.8198 68.6289L27.5635 72.7419L25.3123 68.639C26.0441 68.7198 26.7759 68.7754 27.5025 68.7754C28.2648 68.7754 29.0474 68.7198 29.8198 68.6289ZM36.1314 57.1436L30.8768 66.7087C30.6888 66.7441 30.4906 66.7744 30.3026 66.7997C29.3676 66.9361 28.4173 67.022 27.4975 67.022C26.5777 67.022 25.6223 66.9361 24.6872 66.7997C24.545 66.7795 24.4027 66.7492 24.2553 66.729L19.0058 57.1688C19.2955 57.2042 19.5902 57.2244 19.9205 57.2244C22.1769 57.2244 23.3761 56.2947 24.5653 55.3599C25.3733 54.7384 26.1813 54.1067 27.4873 54.1067C28.7933 54.1067 29.5962 54.7384 30.4093 55.3599C31.5985 56.2947 32.7978 57.2244 35.0541 57.2244C35.4454 57.2244 35.796 57.1991 36.1314 57.1436Z" fill="#fff"></path><path fill-rule="evenodd" clip-rule="evenodd" d="M27.5025 22.4603H27.4873C21.3688 22.4653 15.8094 24.9564 11.7795 28.9634C7.76495 32.9602 5.2698 38.473 5.25964 44.5466V44.582V44.5971C5.26472 50.6758 7.77003 56.2088 11.7999 60.2157C14.3153 62.7119 17.4305 64.6168 20.9064 65.6982L17.7455 59.7963C16.6326 59.0889 15.601 58.2704 14.6711 57.3457C11.3832 54.0815 9.3403 49.5642 9.33522 44.5971V44.582V44.5466C9.3403 39.5846 11.3882 35.0774 14.666 31.8132C17.9488 28.544 22.4868 26.5127 27.4873 26.5127H27.5025H27.5381C32.5182 26.5178 37.0461 28.549 40.3289 31.8132H40.3391C43.627 35.0774 45.6648 39.5947 45.6699 44.5668V44.582V44.6173C45.6597 49.5743 43.627 54.0764 40.3391 57.3457C39.4904 58.1895 38.5554 58.9424 37.5543 59.6094L34.3426 65.6173C37.722 64.5259 40.766 62.6462 43.2255 60.2006C47.2452 56.2037 49.7404 50.6859 49.7454 44.6224V44.587V44.5719C49.7404 38.4881 47.2401 32.9602 43.2103 28.9533L43.2154 28.9482C39.1957 24.9514 33.6413 22.4754 27.5381 22.4653" fill="#fff"></path><path fill-rule="evenodd" clip-rule="evenodd" d="M37.9608 23.0919C30.9836 19.4992 24.0215 19.7115 17.0341 23.0919C17.0341 19.7266 17.0341 16.5332 17.0341 13.1578C22.0701 7.22063 33.3466 7.49854 37.9608 13.1578C37.9608 15.9622 37.9608 20.2824 37.9608 23.0919ZM44.3384 15.8409V14.3604V7.10947V6.01298C44.3384 5.67444 44.0844 5.38642 43.7439 5.346L38.6418 4.70428L27.5025 0L0 11.6116L15.2097 15.5327V12.9001L15.4181 12.3342C15.9212 11.738 16.5005 11.1821 17.1205 10.6819C20.012 8.35754 23.8945 7.2459 27.716 7.28127C31.5425 7.32169 35.3437 8.51924 38.0574 10.7931C38.6164 11.263 39.1347 11.7885 39.6022 12.3544L39.8004 12.9001V15.5327L42.9918 14.7091V15.8409C42.6818 16.0582 42.4734 16.4119 42.4734 16.8212C42.4734 17.2608 42.7174 17.6398 43.068 17.8469C42.8851 17.9379 42.7072 18.0642 42.5497 18.236L42.138 22.1015C42.5497 22.435 43.0832 22.6371 43.6626 22.6371C44.2419 22.6371 44.7704 22.435 45.1973 22.1015L44.7856 18.236C44.6281 18.0642 44.4502 17.9328 44.2673 17.8469C44.623 17.6398 44.8568 17.2608 44.8568 16.8212C44.8619 16.4119 44.6535 16.0532 44.3384 15.8409ZM55 11.6116L45.6953 7.68045V14.0067L55 11.6116Z" fill="#fff"></path><path fill-rule="evenodd" clip-rule="evenodd" d="M18.2994 51.8784V24.5977H24.4433V50.8729C24.0317 51.1104 23.6556 51.3782 23.2796 51.651C22.5478 52.1766 21.816 52.7071 20.632 52.7071C19.6156 52.7071 18.9397 52.318 18.2994 51.8784ZM30.5516 52.2321V25.9569H36.6954V53.2377C36.0602 53.6773 35.3793 54.0714 34.3578 54.0714C33.1789 54.0714 32.4471 53.5408 31.7153 53.0103C31.3393 52.7425 30.9683 52.4696 30.5516 52.2321Z" fill="#fff"></path></g></svg> 